REM DIRINDEX 1\2\6,1\2\7,1\2\8,1\2\9,1\3\10,1\3\11,1\4\12,1\4\13,1\4\14,1\5\15,1\5\16,1\5\17
REM DIRNAME cjc029,folder01,folder02,folder03,folder04,folder05,folder06,folder07,folder08,folder09,folder10,folder11,folder12,folder13,folder14,folder15,folder16
TITLE ""
FILE "1400_2_sec04_0317_0333.mp3" MP3
  TRACK 01 AUDIO
    TITLE "0:"
    INDEX 01 00:00:00
  TRACK 02 AUDIO
    TITLE "13:cjc029_2212"
    INDEX 01 00:00:17
  TRACK 03 AUDIO
    TITLE "0:"
    INDEX 01 00:01:42
  TRACK 04 AUDIO
    TITLE "14:cjc029_2213"
    INDEX 01 00:01:48
  TRACK 05 AUDIO
    TITLE "0:"
    INDEX 01 00:04:07
  TRACK 06 AUDIO
    TITLE "13:cjc029_2214"
    INDEX 01 00:04:62
  TRACK 07 AUDIO
    TITLE "0:"
    INDEX 01 00:06:00
  TRACK 08 AUDIO
    TITLE "14:cjc029_2215"
    INDEX 01 00:06:04
  TRACK 09 AUDIO
    TITLE "0:"
    INDEX 01 00:08:66
  TRACK 10 AUDIO
    TITLE "13:cjc029_2216"
    INDEX 01 00:09:47
  TRACK 11 AUDIO
    TITLE "0:"
    INDEX 01 00:10:53
  TRACK 12 AUDIO
    TITLE "14:cjc029_2217"
    INDEX 01 00:10:57
  TRACK 13 AUDIO
    TITLE "0:"
    INDEX 01 00:14:70
  TRACK 14 AUDIO
    TITLE "13:cjc029_2218"
    INDEX 01 00:15:50
  TRACK 15 AUDIO
    TITLE "0:"
    INDEX 01 00:16:73
  TRACK 16 AUDIO
    TITLE "14:cjc029_2219"
    INDEX 01 00:17:02
  TRACK 17 AUDIO
    TITLE "0:"
    INDEX 01 00:18:03
  TRACK 18 AUDIO
    TITLE "13:cjc029_2220"
    INDEX 01 00:18:60
  TRACK 19 AUDIO
    TITLE "0:"
    INDEX 01 00:19:71
  TRACK 20 AUDIO
    TITLE "14:cjc029_2221"
    INDEX 01 00:20:02
  TRACK 21 AUDIO
    TITLE "0:"
    INDEX 01 00:22:60
  TRACK 22 AUDIO
    TITLE "13:cjc029_2222"
    INDEX 01 00:23:40
  TRACK 23 AUDIO
    TITLE "0:"
    INDEX 01 00:24:59
  TRACK 24 AUDIO
    TITLE "14:cjc029_2223"
    INDEX 01 00:24:65
  TRACK 25 AUDIO
    TITLE "0:"
    INDEX 01 00:25:74
  TRACK 26 AUDIO
    TITLE "13:cjc029_2224"
    INDEX 01 00:26:56
  TRACK 27 AUDIO
    TITLE "0:"
    INDEX 01 00:28:08
  TRACK 28 AUDIO
    TITLE "14:cjc029_2225"
    INDEX 01 00:28:17
  TRACK 29 AUDIO
    TITLE "0:"
    INDEX 01 00:30:08
  TRACK 30 AUDIO
    TITLE "13:cjc029_2226"
    INDEX 01 00:30:67
  TRACK 31 AUDIO
    TITLE "0:"
    INDEX 01 00:32:19
  TRACK 32 AUDIO
    TITLE "14:cjc029_2227"
    INDEX 01 00:32:25
  TRACK 33 AUDIO
    TITLE "0:"
    INDEX 01 00:35:39
  TRACK 34 AUDIO
    TITLE "13:cjc029_2228"
    INDEX 01 00:36:19
  TRACK 35 AUDIO
    TITLE "0:"
    INDEX 01 00:37:44
  TRACK 36 AUDIO
    TITLE "14:cjc029_2229"
    INDEX 01 00:37:48
  TRACK 37 AUDIO
    TITLE "0:"
    INDEX 01 00:39:19
  TRACK 38 AUDIO
    TITLE "13:cjc029_2230"
    INDEX 01 00:39:74
  TRACK 39 AUDIO
    TITLE "0:"
    INDEX 01 00:41:18
  TRACK 40 AUDIO
    TITLE "14:cjc029_2231"
    INDEX 01 00:41:24
  TRACK 41 AUDIO
    TITLE "0:"
    INDEX 01 00:42:49
  TRACK 42 AUDIO
    TITLE "13:cjc029_2232"
    INDEX 01 00:43:31
  TRACK 43 AUDIO
    TITLE "0:"
    INDEX 01 00:44:38
  TRACK 44 AUDIO
    TITLE "14:cjc029_2233"
    INDEX 01 00:44:42
  TRACK 45 AUDIO
    TITLE "0:"
    INDEX 01 00:46:58
  TRACK 46 AUDIO
    TITLE "13:cjc029_2234"
    INDEX 01 00:47:38
  TRACK 47 AUDIO
    TITLE "0:"
    INDEX 01 00:48:67
  TRACK 48 AUDIO
    TITLE "14:cjc029_2235"
    INDEX 01 00:48:71
  TRACK 49 AUDIO
    TITLE "0:"
    INDEX 01 00:51:60
  TRACK 50 AUDIO
    TITLE "13:cjc029_2236"
    INDEX 01 00:52:45
  TRACK 51 AUDIO
    TITLE "0:"
    INDEX 01 00:53:62
  TRACK 52 AUDIO
    TITLE "14:cjc029_2237"
    INDEX 01 00:53:66
  TRACK 53 AUDIO
    TITLE "0:"
    INDEX 01 00:57:11
  TRACK 54 AUDIO
    TITLE "13:cjc029_2238"
    INDEX 01 00:57:74
  TRACK 55 AUDIO
    TITLE "0:"
    INDEX 01 00:58:71
  TRACK 56 AUDIO
    TITLE "14:cjc029_2239"
    INDEX 01 00:59:02
  TRACK 57 AUDIO
    TITLE "0:"
    INDEX 01 01:02:22
  TRACK 58 AUDIO
    TITLE "13:cjc029_2240"
    INDEX 01 01:03:02
  TRACK 59 AUDIO
    TITLE "0:"
    INDEX 01 01:04:21
  TRACK 60 AUDIO
    TITLE "14:cjc029_2241"
    INDEX 01 01:04:27
  TRACK 61 AUDIO
    TITLE "0:"
    INDEX 01 01:05:48
  TRACK 62 AUDIO
    TITLE "13:cjc029_2242"
    INDEX 01 01:06:28
  TRACK 63 AUDIO
    TITLE "0:"
    INDEX 01 01:07:43
  TRACK 64 AUDIO
    TITLE "14:cjc029_2243"
    INDEX 01 01:07:49
  TRACK 65 AUDIO
    TITLE "0:"
    INDEX 01 01:11:45
  TRACK 66 AUDIO
    TITLE "13:cjc029_2244"
    INDEX 01 01:12:26
  TRACK 67 AUDIO
    TITLE "0:"
    INDEX 01 01:13:40
  TRACK 68 AUDIO
    TITLE "14:cjc029_2245"
    INDEX 01 01:13:44
  TRACK 69 AUDIO
    TITLE "0:"
    INDEX 01 01:14:65
